<svg width="30" height="30" viewBox="0 0 30 30" fill="none" xmlns="http://www.w3.org/2000/svg">
<path d="M3.46271 22.8125C3.61271 25.3875 5.00021 27.5 8.45021 27.5H21.5502C25.0002 27.5 26.3752 25.3875 26.5377 22.8125L27.1877 12.4875C27.3627 9.7875 25.2127 7.5 22.5002 7.5C21.7377 7.5 21.0377 7.0625 20.6877 6.3875L19.7877 4.575C19.2127 3.4375 17.7127 2.5 16.4377 2.5H13.5752C12.2877 2.5 10.7877 3.4375 10.2127 4.575L9.31271 6.3875C8.96271 7.0625 8.26271 7.5 7.50021 7.5C4.78771 7.5 2.63771 9.7875 2.81271 12.4875L3.13771 17.575" stroke="white" stroke-width="1.5" stroke-linecap="round" stroke-linejoin="round"/>
<path d="M13.1252 10H16.8752" stroke="white" stroke-width="1.5" stroke-linecap="round" stroke-linejoin="round"/>
<path d="M15.0002 22.5C17.2377 22.5 19.0627 20.675 19.0627 18.4375C19.0627 16.2 17.2377 14.375 15.0002 14.375C12.7627 14.375 10.9377 16.2 10.9377 18.4375C10.9377 20.675 12.7627 22.5 15.0002 22.5Z" stroke="white" stroke-width="1.5" stroke-linecap="round" stroke-linejoin="round"/>
</svg>
