<svg width="17" height="17" viewBox="0 0 17 17" fill="none" xmlns="http://www.w3.org/2000/svg">
<path d="M6.37504 7.08333C7.15744 7.08333 7.79171 6.44907 7.79171 5.66667C7.79171 4.88426 7.15744 4.25 6.37504 4.25C5.59264 4.25 4.95837 4.88426 4.95837 5.66667C4.95837 6.44907 5.59264 7.08333 6.37504 7.08333Z" stroke="#E7E9EA" stroke-linecap="round" stroke-linejoin="round"/>
<path d="M9.20829 1.4165H6.37496C2.83329 1.4165 1.41663 2.83317 1.41663 6.37484V10.6248C1.41663 14.1665 2.83329 15.5832 6.37496 15.5832H10.625C14.1666 15.5832 15.5833 14.1665 15.5833 10.6248V7.08317" stroke="#E7E9EA" stroke-linecap="round" stroke-linejoin="round"/>
<path d="M11.1562 3.5415H15.0521" stroke="#E7E9EA" stroke-linecap="round"/>
<path d="M13.1041 5.48958V1.59375" stroke="#E7E9EA" stroke-linecap="round"/>
<path d="M1.89124 13.4227L5.38332 11.0782C5.9429 10.7027 6.7504 10.7452 7.25332 11.1773L7.48707 11.3827C8.03957 11.8573 8.93207 11.8573 9.48457 11.3827L12.4312 8.85398C12.9837 8.3794 13.8762 8.3794 14.4287 8.85398L15.5833 9.84565" stroke="#E7E9EA" stroke-linecap="round" stroke-linejoin="round"/>
</svg>
