<svg width="11" height="13" viewBox="0 0 11 13" fill="none" xmlns="http://www.w3.org/2000/svg">
<path d="M5.5 6.71094C5.84375 6.71094 6.13802 6.58854 6.38281 6.34375C6.6276 6.09896 6.75 5.80469 6.75 5.46094C6.75 5.11719 6.6276 4.82292 6.38281 4.57812C6.13802 4.33333 5.84375 4.21094 5.5 4.21094C5.15625 4.21094 4.86198 4.33333 4.61719 4.57812C4.3724 4.82292 4.25 5.11719 4.25 5.46094C4.25 5.80469 4.3724 6.09896 4.61719 6.34375C4.86198 6.58854 5.15625 6.71094 5.5 6.71094ZM5.5 11.3047C6.77083 10.138 7.71354 9.07812 8.32812 8.125C8.94271 7.17188 9.25 6.32552 9.25 5.58594C9.25 4.45052 8.88802 3.52083 8.16406 2.79688C7.4401 2.07292 6.55208 1.71094 5.5 1.71094C4.44792 1.71094 3.5599 2.07292 2.83594 2.79688C2.11198 3.52083 1.75 4.45052 1.75 5.58594C1.75 6.32552 2.05729 7.17188 2.67188 8.125C3.28646 9.07812 4.22917 10.138 5.5 11.3047ZM5.5 12.9609C3.82292 11.5339 2.57031 10.2083 1.74219 8.98438C0.914062 7.76042 0.5 6.6276 0.5 5.58594C0.5 4.02344 1.0026 2.77865 2.00781 1.85156C3.01302 0.924479 4.17708 0.460938 5.5 0.460938C6.82292 0.460938 7.98698 0.924479 8.99219 1.85156C9.9974 2.77865 10.5 4.02344 10.5 5.58594C10.5 6.6276 10.0859 7.76042 9.25781 8.98438C8.42969 10.2083 7.17708 11.5339 5.5 12.9609Z" fill="#E8EAED"/>
</svg>
