<svg width="13" height="13" viewBox="0 0 13 13" fill="none" xmlns="http://www.w3.org/2000/svg">
<path d="M2.26091 8.28707L4.71466 10.7408C5.72216 11.7483 7.35799 11.7483 8.37091 10.7408L10.7488 8.3629C11.7563 7.3554 11.7563 5.71957 10.7488 4.70665L8.28966 2.25832C7.77508 1.74374 7.06549 1.46749 6.33966 1.5054L3.63133 1.6354C2.54799 1.68415 1.68674 2.5454 1.63258 3.62332L1.50258 6.33165C1.47008 7.0629 1.74633 7.77248 2.26091 8.28707Z" stroke="black" stroke-linecap="round" stroke-linejoin="round"/>
<path d="M5.14323 6.50033C5.89111 6.50033 6.4974 5.89404 6.4974 5.14616C6.4974 4.39827 5.89111 3.79199 5.14323 3.79199C4.39534 3.79199 3.78906 4.39827 3.78906 5.14616C3.78906 5.89404 4.39534 6.50033 5.14323 6.50033Z" stroke="black" stroke-linecap="round"/>
</svg>
