<svg width="60" height="59" viewBox="0 0 60 59" fill="none" xmlns="http://www.w3.org/2000/svg">
<path d="M0.53125 11.1848C0.53125 5.00762 5.53887 0 11.7161 0H48.3464C54.5236 0 59.5312 5.00762 59.5312 11.1848V47.8152C59.5312 53.9924 54.5236 59 48.3464 59H11.7161C5.53887 59 0.53125 53.9924 0.53125 47.8152V11.1848Z" fill="black"/>
<path d="M45.4629 38.1942C47.36 36.1951 48.7231 34.1087 49.5523 31.935C50.3814 29.7614 50.669 27.6905 50.4149 25.7224C50.1609 23.7544 49.3069 22.0805 47.853 20.7008C46.503 19.4197 45.0124 18.5726 43.3813 18.1596C41.7242 17.722 39.8124 17.7087 37.6459 18.1199C35.4535 18.5064 32.9544 19.2681 30.1486 20.4049C28.0939 21.2182 26.4127 21.7939 25.1051 22.1319C23.7975 22.47 22.7498 22.586 21.9622 22.4801C21.1487 22.3495 20.4953 22.0501 20.002 21.582C19.327 20.9414 19.0035 20.1904 19.0316 19.3289C19.035 18.4933 19.4555 17.6342 20.2932 16.7515C21.1802 15.8168 22.1037 15.3116 23.0637 15.2358C24.0238 15.1601 24.8673 15.4671 25.5942 16.1569C25.9837 16.5265 26.2992 16.974 26.5408 17.4993C26.7564 18 26.9015 18.7051 26.9759 19.6145C27.0244 20.4993 27.0432 21.7014 27.0324 23.2207L26.7143 50.2297L33.7109 50.5782L34.0314 20.7589C34.0629 19.0618 33.9739 17.5958 33.7643 16.3607C33.5548 15.1257 33.2227 14.0458 32.7681 13.1209C32.2888 12.2221 31.6727 11.4154 30.9198 10.7009C29.5958 9.44441 28.0949 8.68623 26.4171 8.42635C24.7394 8.16648 23.0243 8.41393 21.2719 9.1687C19.4935 9.89883 17.7913 11.1206 16.1652 12.8341C14.6623 14.4178 13.6285 16.0272 13.0637 17.6623C12.4483 19.2987 12.3 20.8849 12.6187 22.4209C12.9128 23.9829 13.7089 25.3798 15.007 26.6116C16.1493 27.6957 17.4718 28.4079 18.9744 28.7483C20.4511 29.0641 22.1838 29.0061 24.1725 28.5742C26.1366 28.1684 28.4709 27.3983 31.1755 26.2642C33.0291 25.5068 34.6111 25.0097 35.9214 24.7728C37.181 24.5373 38.2566 24.5218 39.1481 24.7263C40.0395 24.9308 40.8357 25.3657 41.5367 26.0309C42.1858 26.6468 42.5851 27.3959 42.7348 28.278C42.8599 29.1862 42.7203 30.1392 42.316 31.1372C41.9118 32.1351 41.2415 33.1274 40.3053 34.1139C38.8024 35.6976 37.0593 36.8066 35.0758 37.4408C33.0664 38.0504 30.9036 38.1197 28.5875 37.6487C26.2207 37.179 23.801 36.1411 21.3285 34.5349L18.2278 40.8441C21.3934 42.8119 24.6149 44.0187 27.8925 44.4645C31.1701 44.9104 34.3142 44.6128 37.325 43.572C40.3358 42.5311 43.0485 40.7385 45.4629 38.1942Z" fill="#E7E9EA"/>
<path d="M17.8038 35.4485C17.8038 36.9928 16.5519 38.2447 15.0076 38.2447C13.4633 38.2447 12.2114 36.9928 12.2114 35.4485C12.2114 33.9042 13.4633 32.6523 15.0076 32.6523C16.5519 32.6523 17.8038 33.9042 17.8038 35.4485Z" fill="#F06CB7"/>
</svg>
