<svg width="24" height="24" viewBox="0 0 24 24" fill="none" xmlns="http://www.w3.org/2000/svg">
<path d="M11 2H9C4 2 2 4 2 9V15C2 20 4 22 9 22H15C20 22 22 20 22 15V13" stroke="#E7E9EA" stroke-width="1.5" stroke-linecap="round" stroke-linejoin="round"/>
<path d="M16.0418 3.02001L8.16183 10.9C7.86183 11.2 7.56183 11.79 7.50183 12.22L7.07183 15.23C6.91183 16.32 7.68183 17.08 8.77183 16.93L11.7818 16.5C12.2018 16.44 12.7918 16.14 13.1018 15.84L20.9818 7.96001C22.3418 6.60001 22.9818 5.02001 20.9818 3.02001C18.9818 1.02001 17.4018 1.66001 16.0418 3.02001Z" stroke="#E7E9EA" stroke-width="1.5" stroke-miterlimit="10" stroke-linecap="round" stroke-linejoin="round"/>
<path d="M14.9102 4.1499C15.5802 6.5399 17.4502 8.4099 19.8502 9.0899" stroke="#E7E9EA" stroke-width="1.5" stroke-miterlimit="10" stroke-linecap="round" stroke-linejoin="round"/>
</svg>
