<svg width="101" height="100" viewBox="0 0 101 100" fill="none" xmlns="http://www.w3.org/2000/svg">
<path d="M0.5 18.9573C0.5 8.48749 8.98749 0 19.4573 0H81.5427C92.0125 0 100.5 8.48749 100.5 18.9573V81.0427C100.5 91.5125 92.0125 100 81.5427 100H19.4573C8.98749 100 0.5 91.5125 0.5 81.0427V18.9573Z" fill="black"/>
<path d="M76.6553 64.7359C79.8707 61.3476 82.1811 57.8114 83.5865 54.1272C84.9918 50.443 85.4792 46.9331 85.0486 43.5973C84.618 40.2616 83.1705 37.4245 80.7063 35.0861C78.4181 32.9147 75.8917 31.479 73.1272 30.779C70.3186 30.0372 67.0782 30.0148 63.4062 30.7117C59.6902 31.3668 55.4544 32.6578 50.6989 34.5845C47.2164 35.963 44.3669 36.9388 42.1506 37.5117C39.9343 38.0847 38.1586 38.2814 36.8237 38.1018C35.4448 37.8804 34.3373 37.3731 33.5012 36.5797C32.3571 35.4939 31.8089 34.221 31.8565 32.7608C31.8623 31.3446 32.5751 29.8884 33.9948 28.3923C35.4981 26.8082 37.0634 25.9519 38.6906 25.8235C40.3178 25.695 41.7475 26.2154 42.9796 27.3847C43.6397 28.011 44.1745 28.7694 44.584 29.6598C44.9495 30.5084 45.1953 31.7035 45.3215 33.245C45.4037 34.7447 45.4356 36.7821 45.4172 39.3572L44.8781 85.1351L56.7368 85.7257L57.2799 35.1846C57.3333 32.3082 57.1824 29.8234 56.8272 27.7301C56.472 25.6368 55.9092 23.8064 55.1387 22.2389C54.3264 20.7154 53.2822 19.3481 52.0061 18.1371C49.7619 16.0075 47.218 14.7224 44.3744 14.282C41.5308 13.8415 38.6239 14.2609 35.6536 15.5402C32.6394 16.7777 29.7543 18.8485 26.9983 21.7528C24.451 24.437 22.6988 27.1648 21.7415 29.9361C20.6984 32.7097 20.447 35.3982 20.9872 38.0016C21.4856 40.6489 22.8349 43.0166 25.0351 45.1045C26.9713 46.9418 29.2128 48.149 31.7596 48.726C34.2624 49.2612 37.1992 49.1628 40.5699 48.4309C43.8989 47.743 47.8554 46.4379 52.4394 44.5156C55.5811 43.2319 58.2624 42.3893 60.4832 41.9878C62.6183 41.5886 64.4413 41.5623 65.9522 41.909C67.4632 42.2556 68.8127 42.9926 70.0008 44.1201C71.1009 45.1641 71.7778 46.4336 72.0315 47.9289C72.2434 49.4681 72.0068 51.0834 71.3216 52.7749C70.6364 54.4663 69.5004 56.1481 67.9136 57.8202C65.3664 60.5045 62.4119 62.3841 59.0501 63.459C55.6444 64.4922 51.9786 64.6097 48.0529 63.8114C44.0414 63.0153 39.9403 61.2561 35.7496 58.5337L30.4942 69.2273C35.8595 72.5625 41.3198 74.608 46.875 75.3636C52.4302 76.1193 57.7593 75.615 62.8623 73.8508C67.9654 72.0866 72.5631 69.0483 76.6553 64.7359Z" fill="#E7E9EA"/>
<path d="M29.7756 60.0822C29.7756 62.6997 27.6537 64.8215 25.0362 64.8215C22.4188 64.8215 20.2969 62.6997 20.2969 60.0822C20.2969 57.4647 22.4188 55.3429 25.0362 55.3429C27.6537 55.3429 29.7756 57.4647 29.7756 60.0822Z" fill="#F06CB7"/>
</svg>
